<svg id="Capa_1" enable-background="new 0 0 511.952 511.952" height="512" viewBox="0 0 511.952 511.952" width="512" xmlns="http://www.w3.org/2000/svg"><g><path d="m138.477 483.419h-60.566l-22.797-43.532h91.363v35.532c0 4.418-3.582 8-8 8z" fill="#918291"/><path d="m448.843 483.419h-60.302l-23.061-43.532h91.363v35.532c0 4.418-3.582 8-8 8z" fill="#918291"/><path d="m399.474 483.415h-25.752c-4.553 0-8.241-3.688-8.241-8.241v-35.29h25.752v35.29c0 4.553 3.688 8.241 8.241 8.241z" fill="#7a6d79"/><path d="m89.102 483.415h-25.752c-4.543 0-8.241-3.688-8.241-8.241v-35.29h25.752v35.29c0 4.553 3.698 8.241 8.241 8.241z" fill="#7a6d79"/><path d="m495.25 160.733v111.753l-17.231 45.977 17.231 45.977v77.369c0 6.819-5.542 12.361-12.361 12.361h-443.522l-22.659-293.437z" fill="#eaf9fa"/><path d="m200.558 131c-4.142 0-7.5-3.358-7.5-7.5v-54.012c0-4.142 3.358-7.5 7.5-7.5s7.5 3.358 7.5 7.5v54.012c0 4.142-3.358 7.5-7.5 7.5z" fill="#b5adb6"/><path d="m311.394 131c-4.143 0-7.5-3.358-7.5-7.5v-54.012c0-4.142 3.357-7.5 7.5-7.5s7.5 3.358 7.5 7.5v54.012c0 4.142-3.357 7.5-7.5 7.5z" fill="#b5adb6"/><path d="m54.821 454.171h-25.752c-6.829 0-12.361-5.542-12.361-12.361v-77.369l7.138-45.977-7.138-45.977v-111.754h25.752v111.753l-6.695 42.316 6.695 49.639v77.369c0 6.819 5.531 12.361 12.361 12.361z" fill="#d4f2f6"/><path d="m495.25 272.486v91.955h-452.79l-12.876-64.508 12.876-27.447z" fill="#fd8087"/><path d="m16.708 272.486h25.752v91.955h-25.752z" fill="#fe646f"/><path d="m503.952 182.764h-481.476l-8.152-34.659 7.435-33.595h482.193c4.418 0 8 3.582 8 8v52.254c0 4.418-3.582 8-8 8z" fill="#fd8087"/><path d="m33.992 182.767h-25.751c-4.543 0-8.241-3.688-8.241-8.241v-51.772c0-4.553 3.698-8.241 8.241-8.241h25.752c-4.543 0-8.241 3.688-8.241 8.241v51.772c0 4.553 3.698 8.241 8.24 8.241z" fill="#fe646f"/><path d="m340.341 76.233h-154.626l-5.609-23.848 7.761-23.848h152.474c3.314 0 6 2.686 6 6v35.697c0 3.312-2.686 5.999-6 5.999z" fill="#918291"/><path d="m197.548 76.236h-25.752c-3.409 0-6.18-2.771-6.18-6.18v-35.342c0-3.41 2.771-6.18 6.18-6.18h25.752c-3.409 0-6.18 2.771-6.18 6.18v35.342c-.001 3.409 2.77 6.18 6.18 6.18z" fill="#7a6d79"/><path d="m107.559 204.306h-29.648l-7.826-52.482 7.239-48.555h30.235c3.314 0 6 2.686 6 6v89.037c0 3.314-2.686 6-6 6z" fill="#918291"/><path d="m447.753 204.306h-31.299l-10.174-53.33 11.739-47.707h29.733c3.314 0 6 2.686 6 6v89.037c.001 3.314-2.685 6-5.999 6z" fill="#918291"/><path d="m353.402 318.465c0 53.806-43.618 97.424-97.424 97.424s-85.524-72.913-85.524-97.425c0-30.27 31.718-97.422 85.524-97.422s97.424 43.617 97.424 97.423z" fill="#62dbfb"/><path d="m268.85 415.049c-4.213.556-8.508.845-12.876.845-53.801 0-97.414-43.624-97.414-97.425 0-53.811 43.613-97.425 97.414-97.425 4.368 0 8.663.288 12.876.845-47.713 6.294-84.538 47.136-84.538 96.58-.001 49.433 36.825 90.276 84.538 96.58z" fill="#01d0fb"/><path d="m303.631 303.148h-30.275c-1.138 0-2.06-.922-2.06-2.06v-30.275c0-1.138-.922-2.06-2.06-2.06h-26.513c-1.138 0-2.06.922-2.06 2.06v30.275c0 1.138-.922 2.06-2.06 2.06h-30.275c-1.138 0-2.06.922-2.06 2.06v26.513c0 1.138.922 2.06 2.06 2.06h30.275c1.138 0 2.06.922 2.06 2.06v30.275c0 1.138.922 2.06 2.06 2.06h26.513c1.138 0 2.06-.922 2.06-2.06v-30.275c0-1.138.922-2.06 2.06-2.06h30.275c1.138 0 2.06-.922 2.06-2.06v-26.513c0-1.137-.923-2.06-2.06-2.06z" fill="#eaf9fa"/><g fill="#7a6d79"><path d="m88.071 204.305h-23.691c-3.409 0-6.18-2.771-6.18-6.18v-88.679c0-3.41 2.771-6.18 6.18-6.18h23.692c-3.409 0-6.18 2.771-6.18 6.18v88.679c-.001 3.41 2.77 6.18 6.179 6.18z"/><path d="m428.275 204.305h-23.692c-3.42 0-6.18-2.771-6.18-6.18v-88.679c0-3.41 2.761-6.18 6.18-6.18h23.692c-3.42 0-6.181 2.771-6.181 6.18v88.679c0 3.41 2.761 6.18 6.181 6.18z"/></g></g></svg>